<?xml version="1.0" encoding="UTF-8" standalone="no"?>
<!DOCTYPE svg PUBLIC "-//W3C//DTD SVG 1.1//EN"
 "http://www.w3.org/Graphics/SVG/1.1/DTD/svg11.dtd">
<!-- Generated by graphviz version 2.40.1 (20161225.0304)
 -->
<!-- Title: controllers_diagram Pages: 1 -->
<svg width="741pt" height="630pt"
 viewBox="0.00 0.00 741.00 630.00" xmlns="http://www.w3.org/2000/svg" xmlns:xlink="http://www.w3.org/1999/xlink">
<g id="graph0" class="graph" transform="scale(1 1) rotate(0) translate(4 626)">
<title>controllers_diagram</title>
<polygon fill="transparent" stroke="transparent" points="-4,4 -4,-626 737,-626 737,4 -4,4"/>
<!-- _diagram_info -->
<g id="node1" class="node">
<title>_diagram_info</title>
<text text-anchor="start" x="297" y="-80.6" font-family="Times,serif" font-size="13.00" fill="#000000">Controllers diagram</text>
<text text-anchor="start" x="297" y="-66.6" font-family="Times,serif" font-size="13.00" fill="#000000">Date: Jul 11 2019 &#45; 09:32</text>
<text text-anchor="start" x="297" y="-52.6" font-family="Times,serif" font-size="13.00" fill="#000000">Migration version: 20190606170145</text>
<text text-anchor="start" x="297" y="-38.6" font-family="Times,serif" font-size="13.00" fill="#000000">Generated by RailRoady 1.5.3</text>
<text text-anchor="start" x="297" y="-24.6" font-family="Times,serif" font-size="13.00" fill="#000000">http://railroady.prestonlee.com</text>
</g>
<!-- Users::RegistrationsController -->
<g id="node2" class="node">
<title>Users::RegistrationsController</title>
<path fill="none" stroke="#000000" d="M182,-136.5C182,-136.5 364,-136.5 364,-136.5 370,-136.5 376,-142.5 376,-148.5 376,-148.5 376,-351.5 376,-351.5 376,-357.5 370,-363.5 364,-363.5 364,-363.5 182,-363.5 182,-363.5 176,-363.5 170,-357.5 170,-351.5 170,-351.5 170,-148.5 170,-148.5 170,-142.5 176,-136.5 182,-136.5"/>
<text text-anchor="middle" x="273" y="-348.3" font-family="Times,serif" font-size="14.00" fill="#000000">Users::RegistrationsController</text>
<polyline fill="none" stroke="#000000" points="170,-340.5 376,-340.5 "/>
<text text-anchor="start" x="178" y="-325.3" font-family="Times,serif" font-size="14.00" fill="#000000">create</text>
<text text-anchor="start" x="178" y="-310.3" font-family="Times,serif" font-size="14.00" fill="#000000">create_as_admin</text>
<text text-anchor="start" x="178" y="-295.3" font-family="Times,serif" font-size="14.00" fill="#000000">delete</text>
<text text-anchor="start" x="178" y="-280.3" font-family="Times,serif" font-size="14.00" fill="#000000">edit</text>
<text text-anchor="start" x="178" y="-265.3" font-family="Times,serif" font-size="14.00" fill="#000000">new</text>
<text text-anchor="start" x="178" y="-250.3" font-family="Times,serif" font-size="14.00" fill="#000000">update</text>
<polyline fill="none" stroke="#000000" points="170,-242.5 376,-242.5 "/>
<text text-anchor="start" x="178" y="-227.3" font-family="Times,serif" font-size="14.00" fill="#000000">configure_account_update_params</text>
<text text-anchor="start" x="178" y="-212.3" font-family="Times,serif" font-size="14.00" fill="#000000">configure_admin_sign_up_params</text>
<text text-anchor="start" x="178" y="-197.3" font-family="Times,serif" font-size="14.00" fill="#000000">configure_permitted_parameters</text>
<text text-anchor="start" x="178" y="-182.3" font-family="Times,serif" font-size="14.00" fill="#000000">configure_sign_up_params</text>
<polyline fill="none" stroke="#000000" points="170,-174.5 376,-174.5 "/>
<text text-anchor="start" x="178" y="-159.3" font-family="Times,serif" font-size="14.00" fill="#000000">_layout</text>
<text text-anchor="start" x="178" y="-144.3" font-family="Times,serif" font-size="14.00" fill="#000000">user_params</text>
</g>
<!-- Users::UnlocksController -->
<g id="node3" class="node">
<title>Users::UnlocksController</title>
<path fill="none" stroke="#000000" d="M573,-391.5C573,-391.5 704,-391.5 704,-391.5 710,-391.5 716,-397.5 716,-403.5 716,-403.5 716,-473.5 716,-473.5 716,-479.5 710,-485.5 704,-485.5 704,-485.5 573,-485.5 573,-485.5 567,-485.5 561,-479.5 561,-473.5 561,-473.5 561,-403.5 561,-403.5 561,-397.5 567,-391.5 573,-391.5"/>
<text text-anchor="middle" x="638.5" y="-470.3" font-family="Times,serif" font-size="14.00" fill="#000000">Users::UnlocksController</text>
<polyline fill="none" stroke="#000000" points="561,-462.5 716,-462.5 "/>
<polyline fill="none" stroke="#000000" points="561,-438.5 716,-438.5 "/>
<polyline fill="none" stroke="#000000" points="561,-414.5 716,-414.5 "/>
<text text-anchor="start" x="569" y="-399.3" font-family="Times,serif" font-size="14.00" fill="#000000">_layout</text>
</g>
<!-- Users::ConfirmationsController -->
<g id="node4" class="node">
<title>Users::ConfirmationsController</title>
<path fill="none" stroke="#000000" d="M556,-.5C556,-.5 721,-.5 721,-.5 727,-.5 733,-6.5 733,-12.5 733,-12.5 733,-82.5 733,-82.5 733,-88.5 727,-94.5 721,-94.5 721,-94.5 556,-94.5 556,-94.5 550,-94.5 544,-88.5 544,-82.5 544,-82.5 544,-12.5 544,-12.5 544,-6.5 550,-.5 556,-.5"/>
<text text-anchor="middle" x="638.5" y="-79.3" font-family="Times,serif" font-size="14.00" fill="#000000">Users::ConfirmationsController</text>
<polyline fill="none" stroke="#000000" points="544,-71.5 733,-71.5 "/>
<polyline fill="none" stroke="#000000" points="544,-47.5 733,-47.5 "/>
<polyline fill="none" stroke="#000000" points="544,-23.5 733,-23.5 "/>
<text text-anchor="start" x="552" y="-8.3" font-family="Times,serif" font-size="14.00" fill="#000000">_layout</text>
</g>
<!-- Users::SessionsController -->
<g id="node5" class="node">
<title>Users::SessionsController</title>
<path fill="none" stroke="#000000" d="M573,-527.5C573,-527.5 706,-527.5 706,-527.5 712,-527.5 718,-533.5 718,-539.5 718,-539.5 718,-609.5 718,-609.5 718,-615.5 712,-621.5 706,-621.5 706,-621.5 573,-621.5 573,-621.5 567,-621.5 561,-615.5 561,-609.5 561,-609.5 561,-539.5 561,-539.5 561,-533.5 567,-527.5 573,-527.5"/>
<text text-anchor="middle" x="639.5" y="-606.3" font-family="Times,serif" font-size="14.00" fill="#000000">Users::SessionsController</text>
<polyline fill="none" stroke="#000000" points="561,-598.5 718,-598.5 "/>
<polyline fill="none" stroke="#000000" points="561,-574.5 718,-574.5 "/>
<polyline fill="none" stroke="#000000" points="561,-550.5 718,-550.5 "/>
<text text-anchor="start" x="569" y="-535.3" font-family="Times,serif" font-size="14.00" fill="#000000">_layout</text>
</g>
<!-- Users::PasswordsController -->
<g id="node6" class="node">
<title>Users::PasswordsController</title>
<path fill="none" stroke="#000000" d="M233,-527.5C233,-527.5 376,-527.5 376,-527.5 382,-527.5 388,-533.5 388,-539.5 388,-539.5 388,-609.5 388,-609.5 388,-615.5 382,-621.5 376,-621.5 376,-621.5 233,-621.5 233,-621.5 227,-621.5 221,-615.5 221,-609.5 221,-609.5 221,-539.5 221,-539.5 221,-533.5 227,-527.5 233,-527.5"/>
<text text-anchor="middle" x="304.5" y="-606.3" font-family="Times,serif" font-size="14.00" fill="#000000">Users::PasswordsController</text>
<polyline fill="none" stroke="#000000" points="221,-598.5 388,-598.5 "/>
<polyline fill="none" stroke="#000000" points="221,-574.5 388,-574.5 "/>
<polyline fill="none" stroke="#000000" points="221,-550.5 388,-550.5 "/>
<text text-anchor="start" x="229" y="-535.3" font-family="Times,serif" font-size="14.00" fill="#000000">_layout</text>
</g>
<!-- Users::OmniauthCallbacksController -->
<g id="node7" class="node">
<title>Users::OmniauthCallbacksController</title>
<path fill="none" stroke="#000000" d="M182,-391.5C182,-391.5 376,-391.5 376,-391.5 382,-391.5 388,-397.5 388,-403.5 388,-403.5 388,-473.5 388,-473.5 388,-479.5 382,-485.5 376,-485.5 376,-485.5 182,-485.5 182,-485.5 176,-485.5 170,-479.5 170,-473.5 170,-473.5 170,-403.5 170,-403.5 170,-397.5 176,-391.5 182,-391.5"/>
<text text-anchor="middle" x="279" y="-470.3" font-family="Times,serif" font-size="14.00" fill="#000000">Users::OmniauthCallbacksController</text>
<polyline fill="none" stroke="#000000" points="170,-462.5 388,-462.5 "/>
<polyline fill="none" stroke="#000000" points="170,-438.5 388,-438.5 "/>
<polyline fill="none" stroke="#000000" points="170,-414.5 388,-414.5 "/>
<text text-anchor="start" x="178" y="-399.3" font-family="Times,serif" font-size="14.00" fill="#000000">_layout</text>
</g>
<!-- UsersController -->
<g id="node8" class="node">
<title>UsersController</title>
<path fill="none" stroke="#000000" d="M46,-153.5C46,-153.5 125,-153.5 125,-153.5 131,-153.5 137,-159.5 137,-165.5 137,-165.5 137,-234.5 137,-234.5 137,-240.5 131,-246.5 125,-246.5 125,-246.5 46,-246.5 46,-246.5 40,-246.5 34,-240.5 34,-234.5 34,-234.5 34,-165.5 34,-165.5 34,-159.5 40,-153.5 46,-153.5"/>
<text text-anchor="middle" x="85.5" y="-231.3" font-family="Times,serif" font-size="14.00" fill="#000000">UsersController</text>
<polyline fill="none" stroke="#000000" points="34,-223.5 137,-223.5 "/>
<text text-anchor="start" x="42" y="-208.3" font-family="Times,serif" font-size="14.00" fill="#000000">show</text>
<polyline fill="none" stroke="#000000" points="34,-200.5 137,-200.5 "/>
<polyline fill="none" stroke="#000000" points="34,-176.5 137,-176.5 "/>
<text text-anchor="start" x="42" y="-161.3" font-family="Times,serif" font-size="14.00" fill="#000000">_layout</text>
</g>
<!-- ApplicationController -->
<g id="node9" class="node">
<title>ApplicationController</title>
<path fill="none" stroke="#000000" d="M63,-527.5C63,-527.5 179,-527.5 179,-527.5 185,-527.5 191,-533.5 191,-539.5 191,-539.5 191,-608.5 191,-608.5 191,-614.5 185,-620.5 179,-620.5 179,-620.5 63,-620.5 63,-620.5 57,-620.5 51,-614.5 51,-608.5 51,-608.5 51,-539.5 51,-539.5 51,-533.5 57,-527.5 63,-527.5"/>
<text text-anchor="middle" x="121" y="-605.3" font-family="Times,serif" font-size="14.00" fill="#000000">ApplicationController</text>
<polyline fill="none" stroke="#000000" points="51,-597.5 191,-597.5 "/>
<polyline fill="none" stroke="#000000" points="51,-573.5 191,-573.5 "/>
<text text-anchor="start" x="59" y="-558.3" font-family="Times,serif" font-size="14.00" fill="#000000">after_sign_in_path_for</text>
<polyline fill="none" stroke="#000000" points="51,-550.5 191,-550.5 "/>
<text text-anchor="start" x="59" y="-535.3" font-family="Times,serif" font-size="14.00" fill="#000000">_layout</text>
</g>
<!-- HomeController -->
<g id="node10" class="node">
<title>HomeController</title>
<path fill="none" stroke="#000000" d="M46,-272.5C46,-272.5 128,-272.5 128,-272.5 134,-272.5 140,-278.5 140,-284.5 140,-284.5 140,-353.5 140,-353.5 140,-359.5 134,-365.5 128,-365.5 128,-365.5 46,-365.5 46,-365.5 40,-365.5 34,-359.5 34,-353.5 34,-353.5 34,-284.5 34,-284.5 34,-278.5 40,-272.5 46,-272.5"/>
<text text-anchor="middle" x="87" y="-350.3" font-family="Times,serif" font-size="14.00" fill="#000000">HomeController</text>
<polyline fill="none" stroke="#000000" points="34,-342.5 140,-342.5 "/>
<text text-anchor="start" x="42" y="-327.3" font-family="Times,serif" font-size="14.00" fill="#000000">index</text>
<polyline fill="none" stroke="#000000" points="34,-319.5 140,-319.5 "/>
<polyline fill="none" stroke="#000000" points="34,-295.5 140,-295.5 "/>
<text text-anchor="start" x="42" y="-280.3" font-family="Times,serif" font-size="14.00" fill="#000000">_layout</text>
</g>
<!-- AppointmentsController -->
<g id="node11" class="node">
<title>AppointmentsController</title>
<path fill="none" stroke="#000000" d="M420,-136.5C420,-136.5 545,-136.5 545,-136.5 551,-136.5 557,-142.5 557,-148.5 557,-148.5 557,-337.5 557,-337.5 557,-343.5 551,-349.5 545,-349.5 545,-349.5 420,-349.5 420,-349.5 414,-349.5 408,-343.5 408,-337.5 408,-337.5 408,-148.5 408,-148.5 408,-142.5 414,-136.5 420,-136.5"/>
<text text-anchor="middle" x="482.5" y="-334.3" font-family="Times,serif" font-size="14.00" fill="#000000">AppointmentsController</text>
<polyline fill="none" stroke="#000000" points="408,-326.5 557,-326.5 "/>
<text text-anchor="start" x="416" y="-311.3" font-family="Times,serif" font-size="14.00" fill="#000000">all_appointments</text>
<text text-anchor="start" x="416" y="-296.3" font-family="Times,serif" font-size="14.00" fill="#000000">create</text>
<text text-anchor="start" x="416" y="-281.3" font-family="Times,serif" font-size="14.00" fill="#000000">destroy</text>
<text text-anchor="start" x="416" y="-266.3" font-family="Times,serif" font-size="14.00" fill="#000000">edit</text>
<text text-anchor="start" x="416" y="-251.3" font-family="Times,serif" font-size="14.00" fill="#000000">my_appointments</text>
<text text-anchor="start" x="416" y="-236.3" font-family="Times,serif" font-size="14.00" fill="#000000">new</text>
<text text-anchor="start" x="416" y="-221.3" font-family="Times,serif" font-size="14.00" fill="#000000">show</text>
<text text-anchor="start" x="416" y="-206.3" font-family="Times,serif" font-size="14.00" fill="#000000">update</text>
<polyline fill="none" stroke="#000000" points="408,-198.5 557,-198.5 "/>
<polyline fill="none" stroke="#000000" points="408,-174.5 557,-174.5 "/>
<text text-anchor="start" x="416" y="-159.3" font-family="Times,serif" font-size="14.00" fill="#000000">_layout</text>
<text text-anchor="start" x="416" y="-144.3" font-family="Times,serif" font-size="14.00" fill="#000000">appointment_params</text>
</g>
<!-- RoomsController -->
<g id="node12" class="node">
<title>RoomsController</title>
<path fill="none" stroke="#000000" d="M437,-391.5C437,-391.5 524,-391.5 524,-391.5 530,-391.5 536,-397.5 536,-403.5 536,-403.5 536,-607.5 536,-607.5 536,-613.5 530,-619.5 524,-619.5 524,-619.5 437,-619.5 437,-619.5 431,-619.5 425,-613.5 425,-607.5 425,-607.5 425,-403.5 425,-403.5 425,-397.5 431,-391.5 437,-391.5"/>
<text text-anchor="middle" x="480.5" y="-604.3" font-family="Times,serif" font-size="14.00" fill="#000000">RoomsController</text>
<polyline fill="none" stroke="#000000" points="425,-596.5 536,-596.5 "/>
<text text-anchor="start" x="433" y="-581.3" font-family="Times,serif" font-size="14.00" fill="#000000">create</text>
<text text-anchor="start" x="433" y="-566.3" font-family="Times,serif" font-size="14.00" fill="#000000">destroy</text>
<text text-anchor="start" x="433" y="-551.3" font-family="Times,serif" font-size="14.00" fill="#000000">edit</text>
<text text-anchor="start" x="433" y="-536.3" font-family="Times,serif" font-size="14.00" fill="#000000">index</text>
<text text-anchor="start" x="433" y="-521.3" font-family="Times,serif" font-size="14.00" fill="#000000">new</text>
<text text-anchor="start" x="433" y="-506.3" font-family="Times,serif" font-size="14.00" fill="#000000">show</text>
<text text-anchor="start" x="433" y="-491.3" font-family="Times,serif" font-size="14.00" fill="#000000">update</text>
<polyline fill="none" stroke="#000000" points="425,-483.5 536,-483.5 "/>
<polyline fill="none" stroke="#000000" points="425,-459.5 536,-459.5 "/>
<text text-anchor="start" x="433" y="-444.3" font-family="Times,serif" font-size="14.00" fill="#000000">_layout</text>
<text text-anchor="start" x="433" y="-429.3" font-family="Times,serif" font-size="14.00" fill="#000000">is_admin?</text>
<text text-anchor="start" x="433" y="-414.3" font-family="Times,serif" font-size="14.00" fill="#000000">room_params</text>
<text text-anchor="start" x="433" y="-399.3" font-family="Times,serif" font-size="14.00" fill="#000000">signed_in?</text>
</g>
<!-- Backoffice::DashboardController -->
<g id="node13" class="node">
<title>Backoffice::DashboardController</title>
<path fill="none" stroke="#000000" d="M63,-17.5C63,-17.5 236,-17.5 236,-17.5 242,-17.5 248,-23.5 248,-29.5 248,-29.5 248,-98.5 248,-98.5 248,-104.5 242,-110.5 236,-110.5 236,-110.5 63,-110.5 63,-110.5 57,-110.5 51,-104.5 51,-98.5 51,-98.5 51,-29.5 51,-29.5 51,-23.5 57,-17.5 63,-17.5"/>
<text text-anchor="middle" x="149.5" y="-95.3" font-family="Times,serif" font-size="14.00" fill="#000000">Backoffice::DashboardController</text>
<polyline fill="none" stroke="#000000" points="51,-87.5 248,-87.5 "/>
<text text-anchor="start" x="59" y="-72.3" font-family="Times,serif" font-size="14.00" fill="#000000">index</text>
<polyline fill="none" stroke="#000000" points="51,-64.5 248,-64.5 "/>
<polyline fill="none" stroke="#000000" points="51,-40.5 248,-40.5 "/>
<text text-anchor="start" x="59" y="-25.3" font-family="Times,serif" font-size="14.00" fill="#000000">_layout</text>
</g>
<!-- BackofficeController -->
<g id="node14" class="node">
<title>BackofficeController</title>
<path fill="none" stroke="#000000" d="M12,-391.5C12,-391.5 119,-391.5 119,-391.5 125,-391.5 131,-397.5 131,-403.5 131,-403.5 131,-473.5 131,-473.5 131,-479.5 125,-485.5 119,-485.5 119,-485.5 12,-485.5 12,-485.5 6,-485.5 0,-479.5 0,-473.5 0,-473.5 0,-403.5 0,-403.5 0,-397.5 6,-391.5 12,-391.5"/>
<text text-anchor="middle" x="65.5" y="-470.3" font-family="Times,serif" font-size="14.00" fill="#000000">BackofficeController</text>
<polyline fill="none" stroke="#000000" points="0,-462.5 131,-462.5 "/>
<polyline fill="none" stroke="#000000" points="0,-438.5 131,-438.5 "/>
<polyline fill="none" stroke="#000000" points="0,-414.5 131,-414.5 "/>
<text text-anchor="start" x="8" y="-399.3" font-family="Times,serif" font-size="14.00" fill="#000000">_layout</text>
</g>
</g>
</svg>
