<?xml version="1.0" encoding="UTF-8" standalone="no"?>
<!DOCTYPE svg PUBLIC "-//W3C//DTD SVG 1.1//EN"
 "http://www.w3.org/Graphics/SVG/1.1/DTD/svg11.dtd">
<!-- Generated by graphviz version 2.40.1 (20161225.0304)
 -->
<!-- Title: models_diagram Pages: 1 -->
<svg width="656pt" height="656pt"
 viewBox="0.00 0.00 656.34 656.00" xmlns="http://www.w3.org/2000/svg" xmlns:xlink="http://www.w3.org/1999/xlink">
<g id="graph0" class="graph" transform="scale(1 1) rotate(0) translate(4 652)">
<title>models_diagram</title>
<polygon fill="transparent" stroke="transparent" points="-4,4 -4,-652 652.3431,-652 652.3431,4 -4,4"/>
<!-- _diagram_info -->
<g id="node1" class="node">
<title>_diagram_info</title>
<text text-anchor="start" x="8" y="-611.6" font-family="Times,serif" font-size="13.00" fill="#000000">Models diagram</text>
<text text-anchor="start" x="8" y="-597.6" font-family="Times,serif" font-size="13.00" fill="#000000">Date: Jul 11 2019 &#45; 09:31</text>
<text text-anchor="start" x="8" y="-583.6" font-family="Times,serif" font-size="13.00" fill="#000000">Migration version: 20190606170145</text>
<text text-anchor="start" x="8" y="-569.6" font-family="Times,serif" font-size="13.00" fill="#000000">Generated by RailRoady 1.5.3</text>
<text text-anchor="start" x="8" y="-555.6" font-family="Times,serif" font-size="13.00" fill="#000000">http://railroady.prestonlee.com</text>
</g>
<!-- Appointment -->
<g id="node2" class="node">
<title>Appointment</title>
<path fill="none" stroke="#000000" d="M224,-.5C224,-.5 482,-.5 482,-.5 488,-.5 494,-6.5 494,-12.5 494,-12.5 494,-154.5 494,-154.5 494,-160.5 488,-166.5 482,-166.5 482,-166.5 224,-166.5 224,-166.5 218,-166.5 212,-160.5 212,-154.5 212,-154.5 212,-12.5 212,-12.5 212,-6.5 218,-.5 224,-.5"/>
<text text-anchor="middle" x="353" y="-151.3" font-family="Times,serif" font-size="14.00" fill="#000000">Appointment</text>
<polyline fill="none" stroke="#000000" points="212,-143.5 494,-143.5 "/>
<text text-anchor="start" x="220" y="-128.3" font-family="Times,serif" font-size="14.00" fill="#000000">id :bigint</text>
<text text-anchor="start" x="220" y="-113.3" font-family="Times,serif" font-size="14.00" fill="#000000">appointment_date :timestamp without time zone</text>
<text text-anchor="start" x="220" y="-98.3" font-family="Times,serif" font-size="14.00" fill="#000000">start_time :time without time zone</text>
<text text-anchor="start" x="220" y="-83.3" font-family="Times,serif" font-size="14.00" fill="#000000">status :integer</text>
<text text-anchor="start" x="220" y="-68.3" font-family="Times,serif" font-size="14.00" fill="#000000">user_id :bigint</text>
<text text-anchor="start" x="220" y="-53.3" font-family="Times,serif" font-size="14.00" fill="#000000">room_id :bigint</text>
<text text-anchor="start" x="220" y="-38.3" font-family="Times,serif" font-size="14.00" fill="#000000">created_at :timestamp without time zone</text>
<text text-anchor="start" x="220" y="-23.3" font-family="Times,serif" font-size="14.00" fill="#000000">updated_at :timestamp without time zone</text>
<text text-anchor="start" x="220" y="-8.3" font-family="Times,serif" font-size="14.00" fill="#000000">description :character varying</text>
</g>
<!-- ApplicationRecord -->
<g id="node3" class="node">
<title>ApplicationRecord</title>
<ellipse fill="none" stroke="#000000" cx="571" cy="-587" rx="77.1866" ry="18"/>
<text text-anchor="middle" x="571" y="-583.3" font-family="Times,serif" font-size="14.00" fill="#000000">ApplicationRecord</text>
</g>
<!-- Room -->
<g id="node4" class="node">
<title>Room</title>
<path fill="none" stroke="#000000" d="M244,-526.5C244,-526.5 464,-526.5 464,-526.5 470,-526.5 476,-532.5 476,-538.5 476,-538.5 476,-635.5 476,-635.5 476,-641.5 470,-647.5 464,-647.5 464,-647.5 244,-647.5 244,-647.5 238,-647.5 232,-641.5 232,-635.5 232,-635.5 232,-538.5 232,-538.5 232,-532.5 238,-526.5 244,-526.5"/>
<text text-anchor="middle" x="354" y="-632.3" font-family="Times,serif" font-size="14.00" fill="#000000">Room</text>
<polyline fill="none" stroke="#000000" points="232,-624.5 476,-624.5 "/>
<text text-anchor="start" x="240" y="-609.3" font-family="Times,serif" font-size="14.00" fill="#000000">id :bigint</text>
<text text-anchor="start" x="240" y="-594.3" font-family="Times,serif" font-size="14.00" fill="#000000">name :character varying</text>
<text text-anchor="start" x="240" y="-579.3" font-family="Times,serif" font-size="14.00" fill="#000000">location :character varying</text>
<text text-anchor="start" x="240" y="-564.3" font-family="Times,serif" font-size="14.00" fill="#000000">created_at :timestamp without time zone</text>
<text text-anchor="start" x="240" y="-549.3" font-family="Times,serif" font-size="14.00" fill="#000000">updated_at :timestamp without time zone</text>
<text text-anchor="start" x="240" y="-534.3" font-family="Times,serif" font-size="14.00" fill="#000000">students :integer</text>
</g>
<!-- Room&#45;&gt;Appointment -->
<g id="edge1" class="edge">
<title>Room&#45;&gt;Appointment</title>
<path fill="none" stroke="#e64618" d="M294.1887,-519.5334C288.4152,-510.1206 283.4373,-500.1729 280,-490 239.1678,-369.1565 245.4621,-325.7907 280,-203 282.5649,-193.881 286.0403,-184.7695 290.0894,-175.8745"/>
<ellipse fill="none" stroke="#e64618" cx="296.3627" cy="-522.9218" rx="4" ry="4"/>
<polygon fill="#e64618" stroke="#e64618" points="290.1707,-175.7052 298.5585,-168.6415 292.3367,-171.1986 294.5026,-166.6921 294.5026,-166.6921 294.5026,-166.6921 292.3367,-171.1986 290.4468,-164.7427 290.1707,-175.7052 290.1707,-175.7052"/>
</g>
<!-- User -->
<g id="node5" class="node">
<title>User</title>
<path fill="none" stroke="#000000" d="M301.5,-203.5C301.5,-203.5 590.5,-203.5 590.5,-203.5 596.5,-203.5 602.5,-209.5 602.5,-215.5 602.5,-215.5 602.5,-477.5 602.5,-477.5 602.5,-483.5 596.5,-489.5 590.5,-489.5 590.5,-489.5 301.5,-489.5 301.5,-489.5 295.5,-489.5 289.5,-483.5 289.5,-477.5 289.5,-477.5 289.5,-215.5 289.5,-215.5 289.5,-209.5 295.5,-203.5 301.5,-203.5"/>
<text text-anchor="middle" x="446" y="-474.3" font-family="Times,serif" font-size="14.00" fill="#000000">User</text>
<polyline fill="none" stroke="#000000" points="289.5,-466.5 602.5,-466.5 "/>
<text text-anchor="start" x="297.5" y="-451.3" font-family="Times,serif" font-size="14.00" fill="#000000">id :bigint</text>
<text text-anchor="start" x="297.5" y="-436.3" font-family="Times,serif" font-size="14.00" fill="#000000">email :character varying</text>
<text text-anchor="start" x="297.5" y="-421.3" font-family="Times,serif" font-size="14.00" fill="#000000">encrypted_password :character varying</text>
<text text-anchor="start" x="297.5" y="-406.3" font-family="Times,serif" font-size="14.00" fill="#000000">reset_password_token :character varying</text>
<text text-anchor="start" x="297.5" y="-391.3" font-family="Times,serif" font-size="14.00" fill="#000000">reset_password_sent_at :timestamp without time zone</text>
<text text-anchor="start" x="297.5" y="-376.3" font-family="Times,serif" font-size="14.00" fill="#000000">remember_created_at :timestamp without time zone</text>
<text text-anchor="start" x="297.5" y="-361.3" font-family="Times,serif" font-size="14.00" fill="#000000">sign_in_count :integer</text>
<text text-anchor="start" x="297.5" y="-346.3" font-family="Times,serif" font-size="14.00" fill="#000000">current_sign_in_at :timestamp without time zone</text>
<text text-anchor="start" x="297.5" y="-331.3" font-family="Times,serif" font-size="14.00" fill="#000000">last_sign_in_at :timestamp without time zone</text>
<text text-anchor="start" x="297.5" y="-316.3" font-family="Times,serif" font-size="14.00" fill="#000000">current_sign_in_ip :inet</text>
<text text-anchor="start" x="297.5" y="-301.3" font-family="Times,serif" font-size="14.00" fill="#000000">last_sign_in_ip :inet</text>
<text text-anchor="start" x="297.5" y="-286.3" font-family="Times,serif" font-size="14.00" fill="#000000">created_at :timestamp without time zone</text>
<text text-anchor="start" x="297.5" y="-271.3" font-family="Times,serif" font-size="14.00" fill="#000000">updated_at :timestamp without time zone</text>
<text text-anchor="start" x="297.5" y="-256.3" font-family="Times,serif" font-size="14.00" fill="#000000">username :character varying</text>
<text text-anchor="start" x="297.5" y="-241.3" font-family="Times,serif" font-size="14.00" fill="#000000">registration :character varying</text>
<text text-anchor="start" x="297.5" y="-226.3" font-family="Times,serif" font-size="14.00" fill="#000000">course :character varying</text>
<text text-anchor="start" x="297.5" y="-211.3" font-family="Times,serif" font-size="14.00" fill="#000000">is_admin :boolean</text>
</g>
<!-- Room&#45;&gt;User -->
<g id="edge2" class="edge">
<title>Room&#45;&gt;User</title>
<path fill="none" stroke="#f08b24" d="M380.8735,-516.749C383.0421,-511.0802 385.2796,-505.231 387.5613,-499.2664"/>
<polygon fill="#f08b24" stroke="#f08b24" points="380.7884,-516.9717 373.0125,-524.7039 379.002,-521.6417 377.2155,-526.3117 377.2155,-526.3117 377.2155,-526.3117 379.002,-521.6417 381.4185,-527.9195 380.7884,-516.9717 380.7884,-516.9717"/>
<polygon fill="#f08b24" stroke="#f08b24" points="387.6067,-499.1477 395.3826,-491.4155 389.3931,-494.4777 391.1796,-489.8077 391.1796,-489.8077 391.1796,-489.8077 389.3931,-494.4777 386.9766,-488.1999 387.6067,-499.1477 387.6067,-499.1477"/>
</g>
<!-- User&#45;&gt;Appointment -->
<g id="edge3" class="edge">
<title>User&#45;&gt;Appointment</title>
<path fill="none" stroke="#a55400" d="M392.7253,-195.8416C390.4224,-189.329 388.1421,-182.8805 385.9078,-176.5618"/>
<ellipse fill="none" stroke="#a55400" cx="394.0842" cy="-199.6844" rx="4" ry="4"/>
<polygon fill="#a55400" stroke="#a55400" points="385.7716,-176.1766 386.6803,-165.2485 384.1047,-171.4627 382.4378,-166.7487 382.4378,-166.7487 382.4378,-166.7487 384.1047,-171.4627 378.1952,-168.249 385.7716,-176.1766 385.7716,-176.1766"/>
</g>
</g>
</svg>
