<?xml version="1.0" encoding="UTF-8" standalone="no"?>
<!DOCTYPE svg PUBLIC "-//W3C//DTD SVG 1.1//EN"
 "http://www.w3.org/Graphics/SVG/1.1/DTD/svg11.dtd">
<!-- Generated by graphviz version 2.40.1 (20161225.0304)
 -->
<!-- Title: models_diagram Pages: 1 -->
<svg width="477pt" height="230pt"
 viewBox="0.00 0.00 477.34 230.00" xmlns="http://www.w3.org/2000/svg" xmlns:xlink="http://www.w3.org/1999/xlink">
<g id="graph0" class="graph" transform="scale(1 1) rotate(0) translate(4 226)">
<title>models_diagram</title>
<polygon fill="transparent" stroke="transparent" points="-4,4 -4,-226 473.3431,-226 473.3431,4 -4,4"/>
<!-- _diagram_info -->
<g id="node1" class="node">
<title>_diagram_info</title>
<text text-anchor="start" x="8" y="-207.6" font-family="Times,serif" font-size="13.00" fill="#000000">Models diagram</text>
<text text-anchor="start" x="8" y="-193.6" font-family="Times,serif" font-size="13.00" fill="#000000">Date: Jul 11 2019 &#45; 09:32</text>
<text text-anchor="start" x="8" y="-179.6" font-family="Times,serif" font-size="13.00" fill="#000000">Migration version: 20190606170145</text>
<text text-anchor="start" x="8" y="-165.6" font-family="Times,serif" font-size="13.00" fill="#000000">Generated by RailRoady 1.5.3</text>
<text text-anchor="start" x="8" y="-151.6" font-family="Times,serif" font-size="13.00" fill="#000000">http://railroady.prestonlee.com</text>
</g>
<!-- Appointment -->
<g id="node2" class="node">
<title>Appointment</title>
<ellipse fill="none" stroke="#000000" cx="263" cy="-18" rx="57.6901" ry="18"/>
<text text-anchor="middle" x="263" y="-14.3" font-family="Times,serif" font-size="14.00" fill="#000000">Appointment</text>
</g>
<!-- ApplicationRecord -->
<g id="node3" class="node">
<title>ApplicationRecord</title>
<ellipse fill="none" stroke="#000000" cx="392" cy="-183" rx="77.1866" ry="18"/>
<text text-anchor="middle" x="392" y="-179.3" font-family="Times,serif" font-size="14.00" fill="#000000">ApplicationRecord</text>
</g>
<!-- Room -->
<g id="node4" class="node">
<title>Room</title>
<ellipse fill="none" stroke="#000000" cx="264" cy="-183" rx="32.4942" ry="18"/>
<text text-anchor="middle" x="264" y="-179.3" font-family="Times,serif" font-size="14.00" fill="#000000">Room</text>
</g>
<!-- Room&#45;&gt;Appointment -->
<g id="edge1" class="edge">
<title>Room&#45;&gt;Appointment</title>
<path fill="none" stroke="#fb09f4" d="M259.6007,-156.8769C256.3597,-134.3885 252.8587,-101.0658 255,-72 255.6169,-63.6264 256.7649,-54.5812 258.0026,-46.3322"/>
<ellipse fill="none" stroke="#fb09f4" cx="260.2202" cy="-160.9787" rx="4" ry="4"/>
<polygon fill="#fb09f4" stroke="#fb09f4" points="258.0085,-46.2946 264.0287,-37.129 258.7968,-41.3571 259.585,-36.4196 259.585,-36.4196 259.585,-36.4196 258.7968,-41.3571 255.1413,-35.7102 258.0085,-46.2946 258.0085,-46.2946"/>
</g>
<!-- User -->
<g id="node5" class="node">
<title>User</title>
<ellipse fill="none" stroke="#000000" cx="291" cy="-90" rx="27.0966" ry="18"/>
<text text-anchor="middle" x="291" y="-86.3" font-family="Times,serif" font-size="14.00" fill="#000000">User</text>
</g>
<!-- Room&#45;&gt;User -->
<g id="edge2" class="edge">
<title>Room&#45;&gt;User</title>
<path fill="none" stroke="#209c5e" d="M272.1043,-155.0851C275.5426,-143.2421 279.5398,-129.4739 282.97,-117.6589"/>
<polygon fill="#209c5e" stroke="#209c5e" points="271.994,-155.4652 264.8843,-163.814 270.6,-160.2669 269.2059,-165.0687 269.2059,-165.0687 269.2059,-165.0687 270.6,-160.2669 273.5274,-166.3233 271.994,-155.4652 271.994,-155.4652"/>
<polygon fill="#209c5e" stroke="#209c5e" points="283.0219,-117.4798 290.1317,-109.131 284.416,-112.678 285.8101,-107.8763 285.8101,-107.8763 285.8101,-107.8763 284.416,-112.678 281.4886,-106.6216 283.0219,-117.4798 283.0219,-117.4798"/>
</g>
<!-- User&#45;&gt;Appointment -->
<g id="edge3" class="edge">
<title>User&#45;&gt;Appointment</title>
<path fill="none" stroke="#c5c532" d="M281.1262,-64.6102C278.7243,-58.4338 276.1444,-51.7999 273.7059,-45.5295"/>
<ellipse fill="none" stroke="#c5c532" cx="282.6288" cy="-68.4742" rx="4" ry="4"/>
<polygon fill="#c5c532" stroke="#c5c532" points="273.6607,-45.4132 274.2302,-34.4621 271.8485,-40.7531 270.0362,-36.0931 270.0362,-36.0931 270.0362,-36.0931 271.8485,-40.7531 265.8422,-37.7242 273.6607,-45.4132 273.6607,-45.4132"/>
</g>
</g>
</svg>
